<?xml version="1.0" encoding="utf-8" standalone="no"?>
<!DOCTYPE svg PUBLIC "-//W3C//DTD SVG 1.1//EN"
  "http://www.w3.org/Graphics/SVG/1.1/DTD/svg11.dtd">
<svg xmlns:xlink="http://www.w3.org/1999/xlink" width="349.2pt" height="340.56pt" viewBox="0 0 349.2 340.56" xmlns="http://www.w3.org/2000/svg" version="1.1">
 <metadata>
  <rdf:RDF xmlns:dc="http://purl.org/dc/elements/1.1/" xmlns:cc="http://creativecommons.org/ns#" xmlns:rdf="http://www.w3.org/1999/02/22-rdf-syntax-ns#">
   <cc:Work>
    <dc:type rdf:resource="http://purl.org/dc/dcmitype/StillImage"/>
    <dc:date>2022-09-24T19:35:36.985555</dc:date>
    <dc:format>image/svg+xml</dc:format>
    <dc:creator>
     <cc:Agent>
      <dc:title>Matplotlib v3.5.2, https://matplotlib.org/</dc:title>
     </cc:Agent>
    </dc:creator>
   </cc:Work>
  </rdf:RDF>
 </metadata>
 <defs>
  <style type="text/css">*{stroke-linejoin: round; stroke-linecap: butt}</style>
 </defs>
 <g id="figure_1">
  <g id="patch_1">
   <path d="M 0 340.56 
L 349.2 340.56 
L 349.2 0 
L 0 0 
z
" style="fill: #ffffff"/>
  </g>
  <g id="axes_1">
   <g id="patch_2">
    <path d="M 7.2 333.36 
L 342 333.36 
L 342 7.2 
L 7.2 7.2 
z
" style="fill: #ffffff"/>
   </g>
   <g id="patch_3">
    <path d="M 132.75 246.9276 
Q 188.112346 246.9276 243.474692 246.9276 
" clip-path="url(#p2658c2250f)" style="fill: none"/>
    <path d="M 137.55 249.3276 
L 132.75 246.9276 
L 137.55 244.5276 
L 137.55 249.3276 
z
" clip-path="url(#p2658c2250f)"/>
    <path d="M 238.674692 244.5276 
L 243.474692 246.9276 
L 238.674692 249.3276 
L 238.674692 244.5276 
z
" clip-path="url(#p2658c2250f)"/>
   </g>
   <g id="line2d_1">
    <path d="M 7.2 222.4656 
L 342 222.4656 
" clip-path="url(#p2658c2250f)" style="fill: none; stroke: #000000; stroke-width: 0.5; stroke-linecap: square"/>
   </g>
   <g id="line2d_2">
    <path d="M 132.75 333.36 
L 132.75 7.2 
" clip-path="url(#p2658c2250f)" style="fill: none; stroke: #000000; stroke-width: 0.5; stroke-linecap: square"/>
   </g>
   <g id="line2d_3">
    <path d="M 206.901478 333.36 
L 206.901478 7.2 
" clip-path="url(#p2658c2250f)" style="fill: none; stroke-dasharray: 3.7,1.6; stroke-dashoffset: 0; stroke: #808080"/>
   </g>
   <g id="line2d_4">
    <path d="M 206.901478 112.809615 
L 206.901478 76.25762 
" clip-path="url(#p2658c2250f)" style="fill: none; stroke: #000000; stroke-linecap: square"/>
   </g>
   <g id="line2d_5">
    <path d="M 243.474692 222.4656 
L 206.901478 112.809615 
" clip-path="url(#p2658c2250f)" style="fill: none; stroke: #000000; stroke-linecap: square"/>
   </g>
   <g id="line2d_6">
    <path d="M 132.75 222.4656 
L 206.901478 76.25762 
" clip-path="url(#p2658c2250f)" style="fill: none; stroke: #4c80ff; stroke-linecap: square"/>
   </g>
   <g id="line2d_7">
    <path d="M 300.15 222.4656 
L 299.81297 212.122427 
L 298.803236 201.820903 
L 297.124864 191.602507 
L 294.784613 181.508386 
L 291.791905 171.579186 
L 288.158792 161.854887 
L 283.899903 152.374646 
L 279.032386 143.176636 
L 273.575841 134.297895 
L 267.552241 125.774175 
L 260.98584 117.639797 
L 253.903078 109.927515 
L 246.332475 102.668384 
L 238.304516 95.891635 
L 229.851527 89.624554 
L 221.007543 83.892377 
L 211.808178 78.718185 
L 202.290473 74.122814 
L 192.492753 70.124767 
L 182.454471 66.740142 
L 172.216046 63.982569 
L 161.818705 61.863152 
L 151.304315 60.390423 
L 140.715213 59.570314 
L 130.094038 59.406127 
L 119.483557 59.898523 
L 108.926496 61.045519 
L 98.465364 62.842497 
L 88.142284 65.282221 
L 77.998823 68.354866 
L 68.075826 72.048062 
L 58.413249 76.346935 
L 49.05 81.234177 
L 40.023781 86.690108 
L 31.370938 92.692759 
L 23.126313 99.217959 
L 15.323104 106.239435 
L 7.992731 113.728911 
L 1.164712 121.656233 
L -1 124.520409 
M -1 320.410791 
L 1.164712 323.274967 
L 7.992731 331.202289 
L 15.323104 338.691765 
L 18.510673 341.56 
M 247.065447 341.56 
L 253.903078 335.003685 
L 260.98584 327.291403 
L 267.552241 319.157025 
L 273.575841 310.633305 
L 279.032386 301.754564 
L 283.899903 292.556554 
L 288.158792 283.076313 
L 291.791905 273.352014 
L 294.784613 263.422814 
L 297.124864 253.328693 
L 298.803236 243.110297 
L 299.81297 232.808773 
L 300.15 222.4656 
" clip-path="url(#p2658c2250f)" style="fill: none; stroke: #4c80ff; stroke-linecap: square"/>
   </g>
   <g id="line2d_8">
    <path d="M 300.15 222.4656 
L 299.81297 214.70822 
L 298.803236 206.982077 
L 297.124864 199.31828 
L 294.784613 191.74769 
L 291.791905 184.300789 
L 288.158792 177.007565 
L 283.899903 169.897384 
L 279.032386 162.998877 
L 273.575841 156.339822 
L 267.552241 149.947031 
L 260.98584 143.846247 
L 253.903078 138.062036 
L 246.332475 132.617688 
L 238.304516 127.535126 
L 229.851527 122.834815 
L 221.007543 118.535683 
L 211.808178 114.655039 
L 202.290473 111.208511 
L 192.492753 108.209975 
L 182.454471 105.671507 
L 172.216046 103.603327 
L 161.818705 102.013764 
L 151.304315 100.909217 
L 140.715213 100.294136 
L 130.094038 100.170995 
L 119.483557 100.540292 
L 108.926496 101.400539 
L 98.465364 102.748273 
L 88.142284 104.578066 
L 77.998823 106.88255 
L 68.075826 109.652446 
L 58.413249 112.876601 
L 49.05 116.542033 
L 40.023781 120.633981 
L 31.370938 125.135969 
L 23.126313 130.02987 
L 15.323104 135.295976 
L 7.992731 140.913084 
L 1.164712 146.858574 
L -1 149.006707 
M -1 295.924493 
L 1.164712 298.072626 
L 7.992731 304.018116 
L 15.323104 309.635224 
L 23.126313 314.90133 
L 31.370938 319.795231 
L 40.023781 324.297219 
L 49.05 328.389167 
L 58.413249 332.054599 
L 68.075826 335.278754 
L 77.998823 338.04865 
L 88.142284 340.353134 
L 94.951016 341.56 
M 170.697702 341.56 
L 172.216046 341.327873 
L 182.454471 339.259693 
L 192.492753 336.721225 
L 202.290473 333.722689 
L 211.808178 330.276161 
L 221.007543 326.395517 
L 229.851527 322.096385 
L 238.304516 317.396074 
L 246.332475 312.313512 
L 253.903078 306.869164 
L 260.98584 301.084953 
L 267.552241 294.984169 
L 273.575841 288.591378 
L 279.032386 281.932323 
L 283.899903 275.033816 
L 288.158792 267.923635 
L 291.791905 260.630411 
L 294.784613 253.18351 
L 297.124864 245.61292 
L 298.803236 237.949123 
L 299.81297 230.22298 
L 300.15 222.4656 
" clip-path="url(#p2658c2250f)" style="fill: none; stroke: #000000; stroke-width: 2; stroke-linecap: square"/>
   </g>
   <g id="line2d_9">
    <path d="M 256.866692 222.4656 
L 256.838413 221.618201 
L 256.753695 220.774381 
L 256.612895 219.937703 
L 256.416608 219.111702 
L 256.165664 218.299865 
L 255.861121 217.505621 
L 255.504267 216.732324 
L 255.096608 215.983242 
L 254.639867 215.261536 
L 254.135971 214.570255 
L 253.587049 213.912319 
L 252.99542 213.290506 
L 252.363581 212.707442 
L 251.694202 212.16559 
L 250.99011 211.667238 
L 250.254277 211.214491 
L 249.489812 210.809261 
L 248.699944 210.45326 
L 247.888007 210.14799 
L 247.057432 209.894741 
L 246.211726 209.694583 
L 245.35446 209.548362 
L 244.489255 209.456693 
L 243.619766 209.419966 
L 242.749664 209.438334 
L 241.882624 209.51172 
L 241.022308 209.639815 
L 240.172349 209.822077 
L 239.336337 210.057736 
" clip-path="url(#p2658c2250f)" style="fill: none; stroke: #000000; stroke-linecap: square"/>
   </g>
   <g id="line2d_10">
    <path d="M 146.142 222.4656 
L 146.132158 221.965506 
L 146.102645 221.466147 
L 146.053506 220.968257 
L 145.984812 220.472569 
L 145.896665 219.979809 
L 145.789194 219.490704 
L 145.662556 219.005971 
L 145.516939 218.526323 
L 145.352556 218.052466 
L 145.169649 217.585095 
L 144.968486 217.124899 
L 144.749364 216.672552 
L 144.512604 216.22872 
L 144.258554 215.794056 
L 143.987588 215.369199 
L 143.700105 214.954772 
L 143.396526 214.551385 
L 143.077298 214.159631 
L 142.74289 213.780086 
L 142.393793 213.413307 
L 142.030522 213.059834 
L 141.653609 212.720187 
L 141.263609 212.394864 
L 140.861095 212.084344 
L 140.446659 211.789083 
L 140.02091 211.509515 
L 139.584473 211.246052 
L 139.13799 210.999079 
L 138.682118 210.768962 
" clip-path="url(#p2658c2250f)" style="fill: none; stroke: #4c80ff; stroke-linecap: square"/>
   </g>
   <g id="line2d_11">
    <path d="M 136.935 246.9276 
L 239.289692 246.9276 
" clip-path="url(#p2658c2250f)" style="fill: none; stroke: #000000; stroke-linecap: square"/>
   </g>
   <g id="line2d_12">
    <path d="M 243.474692 222.4656 
L 243.474692 255.0816 
" clip-path="url(#p2658c2250f)" style="fill: none; stroke: #000000; stroke-width: 0.5; stroke-linecap: square"/>
   </g>
   <g id="patch_4">
    <path d="M 132.75 224.9118 
C 133.415925 224.9118 134.054665 224.654053 134.525545 224.195325 
C 134.996425 223.736596 135.261 223.11434 135.261 222.4656 
C 135.261 221.81686 134.996425 221.194604 134.525545 220.735875 
C 134.054665 220.277147 133.415925 220.0194 132.75 220.0194 
C 132.084075 220.0194 131.445335 220.277147 130.974455 220.735875 
C 130.503575 221.194604 130.239 221.81686 130.239 222.4656 
C 130.239 223.11434 130.503575 223.736596 130.974455 224.195325 
C 131.445335 224.654053 132.084075 224.9118 132.75 224.9118 
z
" clip-path="url(#p2658c2250f)" style="fill: #ffffff; stroke: #000000; stroke-linejoin: miter"/>
   </g>
   <g id="patch_5">
    <path d="M 243.474692 224.9118 
C 244.140617 224.9118 244.779357 224.654053 245.250237 224.195325 
C 245.721118 223.736596 245.985692 223.11434 245.985692 222.4656 
C 245.985692 221.81686 245.721118 221.194604 245.250237 220.735875 
C 244.779357 220.277147 244.140617 220.0194 243.474692 220.0194 
C 242.808767 220.0194 242.170027 220.277147 241.699147 220.735875 
C 241.228267 221.194604 240.963692 221.81686 240.963692 222.4656 
C 240.963692 223.11434 241.228267 223.736596 241.699147 224.195325 
C 242.170027 224.654053 242.808767 224.9118 243.474692 224.9118 
z
" clip-path="url(#p2658c2250f)" style="fill: #ffffff; stroke: #000000; stroke-linejoin: miter"/>
   </g>
   <g id="patch_6">
    <path d="M 22.025308 224.9118 
C 22.691233 224.9118 23.329973 224.654053 23.800853 224.195325 
C 24.271733 223.736596 24.536308 223.11434 24.536308 222.4656 
C 24.536308 221.81686 24.271733 221.194604 23.800853 220.735875 
C 23.329973 220.277147 22.691233 220.0194 22.025308 220.0194 
C 21.359383 220.0194 20.720643 220.277147 20.249763 220.735875 
C 19.778882 221.194604 19.514308 221.81686 19.514308 222.4656 
C 19.514308 223.11434 19.778882 223.736596 20.249763 224.195325 
C 20.720643 224.654053 21.359383 224.9118 22.025308 224.9118 
z
" clip-path="url(#p2658c2250f)" style="fill: #ffffff; stroke: #000000; stroke-linejoin: miter"/>
   </g>
   <g id="patch_7">
    <path d="M 206.901478 115.255815 
C 207.567403 115.255815 208.206143 114.998068 208.677023 114.53934 
C 209.147903 114.080611 209.412478 113.458355 209.412478 112.809615 
C 209.412478 112.160875 209.147903 111.538619 208.677023 111.07989 
C 208.206143 110.621162 207.567403 110.363415 206.901478 110.363415 
C 206.235553 110.363415 205.596813 110.621162 205.125933 111.07989 
C 204.655053 111.538619 204.390478 112.160875 204.390478 112.809615 
C 204.390478 113.458355 204.655053 114.080611 205.125933 114.53934 
C 205.596813 114.998068 206.235553 115.255815 206.901478 115.255815 
z
" clip-path="url(#p2658c2250f)" style="fill: #ffffff; stroke: #000000; stroke-linejoin: miter"/>
   </g>
   <g id="patch_8">
    <path d="M 206.901478 78.70382 
C 207.567403 78.70382 208.206143 78.446073 208.677023 77.987345 
C 209.147903 77.528616 209.412478 76.90636 209.412478 76.25762 
C 209.412478 75.60888 209.147903 74.986624 208.677023 74.527895 
C 208.206143 74.069167 207.567403 73.81142 206.901478 73.81142 
C 206.235553 73.81142 205.596813 74.069167 205.125933 74.527895 
C 204.655053 74.986624 204.390478 75.60888 204.390478 76.25762 
C 204.390478 76.90636 204.655053 77.528616 205.125933 77.987345 
C 205.596813 78.446073 206.235553 78.70382 206.901478 78.70382 
z
" clip-path="url(#p2658c2250f)" style="fill: #ffffff; stroke: #4c80ff; stroke-linejoin: miter"/>
   </g>
   <g id="patch_9">
    <path d="M 300.15 224.9118 
C 300.815925 224.9118 301.454665 224.654053 301.925545 224.195325 
C 302.396425 223.736596 302.661 223.11434 302.661 222.4656 
C 302.661 221.81686 302.396425 221.194604 301.925545 220.735875 
C 301.454665 220.277147 300.815925 220.0194 300.15 220.0194 
C 299.484075 220.0194 298.845335 220.277147 298.374455 220.735875 
C 297.903575 221.194604 297.639 221.81686 297.639 222.4656 
C 297.639 223.11434 297.903575 223.736596 298.374455 224.195325 
C 298.845335 224.654053 299.484075 224.9118 300.15 224.9118 
z
" clip-path="url(#p2658c2250f)" style="fill: #ffffff; stroke: #000000; stroke-linejoin: miter"/>
   </g>
   <g id="patch_10">
    <path d="M 7.2 333.36 
L 7.2 7.2 
" style="fill: none; stroke: #000000; stroke-width: 0.8; stroke-linejoin: miter; stroke-linecap: square"/>
   </g>
   <g id="patch_11">
    <path d="M 342 333.36 
L 342 7.2 
" style="fill: none; stroke: #000000; stroke-width: 0.8; stroke-linejoin: miter; stroke-linecap: square"/>
   </g>
   <g id="patch_12">
    <path d="M 7.2 333.36 
L 342 333.36 
" style="fill: none; stroke: #000000; stroke-width: 0.8; stroke-linejoin: miter; stroke-linecap: square"/>
   </g>
   <g id="patch_13">
    <path d="M 7.2 7.2 
L 342 7.2 
" style="fill: none; stroke: #000000; stroke-width: 0.8; stroke-linejoin: miter; stroke-linecap: square"/>
   </g>
   <g id="text_1">
    <!-- $P$ -->
    <g transform="translate(188.487478 130.748415)scale(0.16 -0.16)">
     <defs>
      <path id="Cmmi10-50" d="M 313 0 
Q 250 0 250 84 
Q 253 100 262 139 
Q 272 178 289 201 
Q 306 225 331 225 
Q 722 225 878 269 
Q 959 297 997 441 
L 1875 3956 
Q 1888 4019 1888 4044 
Q 1888 4113 1813 4122 
Q 1691 4147 1350 4147 
Q 1288 4147 1288 4231 
Q 1291 4247 1300 4286 
Q 1309 4325 1326 4348 
Q 1344 4372 1369 4372 
L 3578 4372 
Q 3881 4372 4165 4264 
Q 4450 4156 4631 3934 
Q 4813 3713 4813 3397 
Q 4813 2991 4527 2672 
Q 4241 2353 3814 2175 
Q 3388 1997 2988 1997 
L 1947 1997 
L 1556 416 
Q 1544 353 1544 325 
Q 1544 300 1551 283 
Q 1559 266 1573 261 
Q 1588 256 1619 250 
Q 1741 225 2081 225 
Q 2144 225 2144 141 
Q 2122 50 2109 25 
Q 2097 0 2034 0 
L 313 0 
z
M 1978 2188 
L 2875 2188 
Q 3497 2188 3822 2522 
Q 3988 2688 4092 3000 
Q 4197 3313 4197 3566 
Q 4197 3881 3956 4014 
Q 3716 4147 3359 4147 
L 2747 4147 
Q 2572 4147 2515 4117 
Q 2459 4088 2413 3928 
L 1978 2188 
z
" transform="scale(0.015625)"/>
     </defs>
     <use xlink:href="#Cmmi10-50" transform="translate(0 0.6875)"/>
    </g>
   </g>
   <g id="text_2">
    <!-- $P'$ -->
    <g transform="translate(211.923478 71.36522)scale(0.16 -0.16)">
     <defs>
      <path id="Cmsy10-30" d="M 225 347 
Q 184 359 184 409 
L 966 3316 
Q 1003 3434 1093 3506 
Q 1184 3578 1300 3578 
Q 1450 3578 1564 3479 
Q 1678 3381 1678 3231 
Q 1678 3166 1644 3084 
L 488 319 
Q 466 275 428 275 
Q 394 275 320 306 
Q 247 338 225 347 
z
" transform="scale(0.015625)"/>
     </defs>
     <use xlink:href="#Cmmi10-50" transform="translate(0 0.601562)"/>
     <use xlink:href="#Cmsy10-30" transform="translate(75.578516 38.865625)scale(0.7)"/>
    </g>
   </g>
   <g id="text_3">
    <!-- $F$ -->
    <g transform="translate(245.985692 238.7736)scale(0.16 -0.16)">
     <defs>
      <path id="Cmmi10-46" d="M 300 0 
Q 238 0 238 84 
Q 241 100 250 139 
Q 259 178 276 201 
Q 294 225 319 225 
Q 709 225 863 269 
Q 947 297 984 441 
L 1863 3956 
Q 1875 4019 1875 4044 
Q 1875 4113 1797 4122 
Q 1678 4147 1338 4147 
Q 1275 4147 1275 4231 
Q 1278 4247 1287 4286 
Q 1297 4325 1314 4348 
Q 1331 4372 1356 4372 
L 4738 4372 
Q 4800 4372 4800 4288 
L 4647 2963 
Q 4647 2944 4625 2925 
Q 4603 2906 4581 2906 
L 4525 2906 
Q 4459 2906 4459 2988 
Q 4500 3278 4500 3463 
Q 4500 3781 4362 3931 
Q 4225 4081 4015 4114 
Q 3806 4147 3438 4147 
L 2753 4147 
Q 2578 4147 2522 4117 
Q 2466 4088 2419 3928 
L 2009 2297 
L 2491 2297 
Q 2728 2297 2875 2322 
Q 3022 2347 3119 2419 
Q 3216 2491 3280 2627 
Q 3344 2763 3397 2988 
Q 3416 3047 3463 3047 
L 3519 3047 
Q 3584 3047 3584 2963 
L 3194 1381 
Q 3166 1325 3128 1325 
L 3072 1325 
Q 3009 1325 3009 1409 
Q 3025 1475 3034 1519 
Q 3044 1563 3058 1645 
Q 3072 1728 3072 1791 
Q 3072 1975 2909 2025 
Q 2747 2075 2484 2075 
L 1959 2075 
L 1544 416 
Q 1528 353 1528 353 
Q 1528 278 1575 269 
Q 1741 225 2228 225 
Q 2291 225 2291 141 
Q 2269 50 2256 25 
Q 2244 0 2181 0 
L 300 0 
z
" transform="scale(0.015625)"/>
     </defs>
     <use xlink:href="#Cmmi10-46" transform="translate(0 0.6875)"/>
    </g>
   </g>
   <g id="text_4">
    <!-- $F'$ -->
    <g transform="translate(24.536308 238.7736)scale(0.16 -0.16)">
     <use xlink:href="#Cmmi10-46" transform="translate(0 0.601562)"/>
     <use xlink:href="#Cmsy10-30" transform="translate(75.676172 38.865625)scale(0.7)"/>
    </g>
   </g>
   <g id="text_5">
    <!-- $O$ -->
    <g transform="translate(135.261 238.7736)scale(0.16 -0.16)">
     <defs>
      <path id="Cmmi10-4f" d="M 1947 -141 
Q 1466 -141 1094 79 
Q 722 300 520 692 
Q 319 1084 319 1563 
Q 319 2259 714 2950 
Q 1109 3641 1756 4077 
Q 2403 4513 3109 4513 
Q 3475 4513 3778 4381 
Q 4081 4250 4290 4017 
Q 4500 3784 4614 3471 
Q 4728 3159 4728 2791 
Q 4728 2263 4503 1739 
Q 4278 1216 3879 786 
Q 3481 356 2984 107 
Q 2488 -141 1947 -141 
z
M 1997 50 
Q 2463 50 2866 345 
Q 3269 641 3553 1108 
Q 3838 1575 3989 2089 
Q 4141 2603 4141 3047 
Q 4141 3394 4022 3683 
Q 3903 3972 3656 4148 
Q 3409 4325 3066 4325 
Q 2728 4325 2409 4162 
Q 2091 4000 1831 3731 
Q 1566 3459 1359 3057 
Q 1153 2656 1047 2214 
Q 941 1772 941 1381 
Q 941 838 1208 444 
Q 1475 50 1997 50 
z
" transform="scale(0.015625)"/>
     </defs>
     <use xlink:href="#Cmmi10-4f" transform="translate(0 0.484375)"/>
    </g>
   </g>
   <g id="text_6">
    <!-- $A$ -->
    <g transform="translate(303.498 217.5732)scale(0.16 -0.16)">
     <defs>
      <path id="Cmmi10-41" d="M 288 0 
Q 225 0 225 84 
Q 250 225 306 225 
Q 566 225 755 328 
Q 944 431 1081 647 
Q 1094 659 1094 659 
L 3378 4513 
Q 3428 4581 3500 4581 
L 3584 4581 
Q 3603 4581 3622 4573 
Q 3641 4566 3655 4548 
Q 3669 4531 3669 4513 
L 4056 378 
Q 4056 350 4084 294 
Q 4147 225 4563 225 
Q 4628 225 4628 141 
Q 4606 56 4592 28 
Q 4578 0 4519 0 
L 2919 0 
Q 2859 0 2859 84 
Q 2894 225 2944 225 
Q 3450 225 3481 397 
L 3384 1453 
L 1806 1453 
L 1294 594 
Q 1247 525 1247 434 
Q 1247 322 1355 273 
Q 1463 225 1594 225 
Q 1656 225 1656 141 
Q 1634 50 1621 25 
Q 1609 0 1550 0 
L 288 0 
z
M 1931 1678 
L 3359 1678 
L 3169 3750 
L 1931 1678 
z
" transform="scale(0.015625)"/>
     </defs>
     <use xlink:href="#Cmmi10-41" transform="translate(0 0.421875)"/>
    </g>
   </g>
   <g id="text_7">
    <!-- $E$ -->
    <g style="fill: #4c80ff" transform="translate(145.305 211.05)scale(0.15 -0.15)">
     <defs>
      <path id="Cmmi10-45" d="M 300 0 
Q 238 0 238 84 
Q 241 100 250 139 
Q 259 178 276 201 
Q 294 225 319 225 
Q 709 225 863 269 
Q 947 297 984 441 
L 1863 3956 
Q 1875 4019 1875 4044 
Q 1875 4113 1797 4122 
Q 1678 4147 1338 4147 
Q 1275 4147 1275 4231 
Q 1278 4247 1287 4286 
Q 1297 4325 1314 4348 
Q 1331 4372 1356 4372 
L 4825 4372 
Q 4891 4372 4891 4288 
L 4738 2963 
Q 4738 2947 4714 2926 
Q 4691 2906 4672 2906 
L 4616 2906 
Q 4550 2906 4550 2988 
Q 4588 3300 4588 3450 
Q 4588 3706 4500 3848 
Q 4413 3991 4267 4053 
Q 4122 4116 3945 4131 
Q 3769 4147 3481 4147 
L 2753 4147 
Q 2578 4147 2522 4117 
Q 2466 4088 2419 3928 
L 2034 2381 
L 2534 2381 
Q 2859 2381 3025 2426 
Q 3191 2472 3287 2615 
Q 3384 2759 3463 3072 
Q 3469 3094 3486 3111 
Q 3503 3128 3525 3128 
L 3584 3128 
Q 3647 3128 3647 3047 
L 3250 1466 
Q 3238 1409 3188 1409 
L 3128 1409 
Q 3066 1409 3066 1491 
Q 3128 1747 3128 1869 
Q 3128 2056 2959 2106 
Q 2791 2156 2509 2156 
L 1978 2156 
L 1544 416 
Q 1516 338 1516 275 
Q 1516 225 1734 225 
L 2509 225 
Q 2972 225 3259 297 
Q 3547 369 3736 526 
Q 3925 684 4062 928 
Q 4200 1172 4397 1638 
Q 4409 1678 4453 1678 
L 4513 1678 
Q 4538 1678 4556 1656 
Q 4575 1634 4575 1606 
Q 4575 1594 4569 1581 
L 3909 38 
Q 3897 0 3859 0 
L 300 0 
z
" transform="scale(0.015625)"/>
     </defs>
     <use xlink:href="#Cmmi10-45" transform="translate(0 0.6875)"/>
    </g>
   </g>
   <g id="text_8">
    <!-- $θ$ -->
    <g transform="translate(253.518692 208.6038)scale(0.16 -0.16)">
     <defs>
      <path id="STIXGeneral-Italic-3b8" d="M 3162 3270 
Q 3162 2534 2925 1862 
Q 2688 1190 2304 678 
Q 1741 -70 992 -70 
Q 608 -70 390 224 
Q 173 518 173 1030 
Q 173 1997 592 2813 
Q 1011 3629 1594 4070 
Q 1952 4339 2374 4339 
Q 2733 4339 2947 4076 
Q 3162 3814 3162 3270 
z
M 941 2221 
L 2432 2221 
Q 2624 2874 2624 3533 
Q 2624 4205 2285 4205 
Q 2029 4205 1728 3814 
Q 1427 3424 1232 2992 
Q 1037 2560 941 2221 
z
M 2387 2016 
L 896 2016 
Q 710 1530 710 960 
Q 710 64 1069 64 
Q 1286 64 1510 275 
Q 1734 486 1904 806 
Q 2074 1126 2198 1440 
Q 2323 1754 2387 2016 
z
" transform="scale(0.015625)"/>
     </defs>
     <use xlink:href="#STIXGeneral-Italic-3b8" transform="translate(0 0.203125)"/>
    </g>
   </g>
   <g id="text_9">
    <!-- $r$ -->
    <g transform="translate(231.516 173.5416)scale(0.16 -0.16)">
     <defs>
      <path id="Cmmi10-72" d="M 494 109 
Q 494 147 500 166 
L 978 2075 
Q 1025 2253 1025 2388 
Q 1025 2663 838 2663 
Q 638 2663 541 2423 
Q 444 2184 353 1819 
Q 353 1800 334 1789 
Q 316 1778 300 1778 
L 225 1778 
Q 203 1778 187 1801 
Q 172 1825 172 1844 
Q 241 2122 305 2315 
Q 369 2509 505 2668 
Q 641 2828 844 2828 
Q 1066 2828 1233 2700 
Q 1400 2572 1441 2363 
Q 1603 2575 1811 2701 
Q 2019 2828 2266 2828 
Q 2469 2828 2623 2709 
Q 2778 2591 2778 2388 
Q 2778 2225 2676 2104 
Q 2575 1984 2406 1984 
Q 2303 1984 2233 2048 
Q 2163 2113 2163 2216 
Q 2163 2356 2266 2467 
Q 2369 2578 2503 2578 
Q 2400 2663 2253 2663 
Q 1978 2663 1775 2467 
Q 1572 2272 1409 1972 
L 953 141 
Q 931 53 854 -9 
Q 778 -72 684 -72 
Q 606 -72 550 -22 
Q 494 28 494 109 
z
" transform="scale(0.015625)"/>
     </defs>
     <use xlink:href="#Cmmi10-72" transform="translate(0 0.8125)"/>
    </g>
   </g>
   <g id="text_10">
    <!-- $e$ -->
    <g transform="translate(176.274 258.3432)scale(0.16 -0.16)">
     <defs>
      <path id="Cmmi10-65" d="M 1288 -72 
Q 981 -72 751 87 
Q 522 247 401 517 
Q 281 788 281 1088 
Q 281 1544 511 1945 
Q 741 2347 1134 2587 
Q 1528 2828 1978 2828 
Q 2253 2828 2458 2686 
Q 2663 2544 2663 2278 
Q 2663 1909 2369 1729 
Q 2075 1550 1706 1508 
Q 1338 1466 891 1466 
L 872 1466 
Q 769 1084 769 813 
Q 769 528 900 312 
Q 1031 97 1300 97 
Q 1681 97 2032 272 
Q 2384 447 2606 756 
Q 2625 775 2656 775 
Q 2688 775 2720 739 
Q 2753 703 2753 672 
Q 2753 647 2741 634 
Q 2506 306 2109 117 
Q 1713 -72 1288 -72 
z
M 909 1631 
Q 1281 1631 1597 1665 
Q 1913 1700 2169 1839 
Q 2425 1978 2425 2272 
Q 2425 2391 2359 2480 
Q 2294 2569 2189 2616 
Q 2084 2663 1972 2663 
Q 1700 2663 1483 2516 
Q 1266 2369 1125 2133 
Q 984 1897 909 1631 
z
" transform="scale(0.015625)"/>
     </defs>
     <use xlink:href="#Cmmi10-65" transform="translate(0 0.8125)"/>
    </g>
   </g>
   <g id="text_11">
    <!-- $a$ -->
    <g transform="translate(185.481 258.3432)scale(0.16 -0.16)">
     <defs>
      <path id="Cmmi10-61" d="M 1113 -72 
Q 709 -72 476 233 
Q 244 538 244 953 
Q 244 1363 456 1803 
Q 669 2244 1030 2536 
Q 1391 2828 1806 2828 
Q 1997 2828 2147 2725 
Q 2297 2622 2381 2444 
Q 2453 2700 2663 2700 
Q 2744 2700 2798 2651 
Q 2853 2603 2853 2522 
Q 2853 2503 2851 2493 
Q 2850 2484 2847 2472 
L 2400 684 
Q 2356 494 2356 372 
Q 2356 97 2541 97 
Q 2741 97 2845 351 
Q 2950 606 3022 941 
Q 3034 978 3072 978 
L 3150 978 
Q 3175 978 3190 956 
Q 3206 934 3206 916 
Q 3094 469 2961 198 
Q 2828 -72 2528 -72 
Q 2313 -72 2147 54 
Q 1981 181 1941 391 
Q 1528 -72 1113 -72 
z
M 1119 97 
Q 1350 97 1567 270 
Q 1784 444 1941 678 
Q 1947 684 1947 697 
L 2291 2088 
L 2297 2106 
Q 2259 2334 2132 2498 
Q 2006 2663 1791 2663 
Q 1575 2663 1389 2486 
Q 1203 2309 1075 2069 
Q 950 1813 836 1366 
Q 722 919 722 672 
Q 722 450 817 273 
Q 913 97 1119 97 
z
" transform="scale(0.015625)"/>
     </defs>
     <use xlink:href="#Cmmi10-61" transform="translate(0 0.8125)"/>
    </g>
   </g>
   <g id="text_12">
    <!-- $a$ -->
    <g style="fill: #4c80ff" transform="translate(157.86 149.0796)scale(0.16 -0.16)">
     <use xlink:href="#Cmmi10-61" transform="translate(0 0.8125)"/>
    </g>
   </g>
   <g id="text_13">
    <!-- Trajectory -->
    <g transform="translate(239.523982 307.967623)rotate(-44)scale(0.12 -0.12)">
     <defs>
      <path id="DejaVuSans-54" d="M -19 4666 
L 3928 4666 
L 3928 4134 
L 2272 4134 
L 2272 0 
L 1638 0 
L 1638 4134 
L -19 4134 
L -19 4666 
z
" transform="scale(0.015625)"/>
      <path id="DejaVuSans-72" d="M 2631 2963 
Q 2534 3019 2420 3045 
Q 2306 3072 2169 3072 
Q 1681 3072 1420 2755 
Q 1159 2438 1159 1844 
L 1159 0 
L 581 0 
L 581 3500 
L 1159 3500 
L 1159 2956 
Q 1341 3275 1631 3429 
Q 1922 3584 2338 3584 
Q 2397 3584 2469 3576 
Q 2541 3569 2628 3553 
L 2631 2963 
z
" transform="scale(0.015625)"/>
      <path id="DejaVuSans-61" d="M 2194 1759 
Q 1497 1759 1228 1600 
Q 959 1441 959 1056 
Q 959 750 1161 570 
Q 1363 391 1709 391 
Q 2188 391 2477 730 
Q 2766 1069 2766 1631 
L 2766 1759 
L 2194 1759 
z
M 3341 1997 
L 3341 0 
L 2766 0 
L 2766 531 
Q 2569 213 2275 61 
Q 1981 -91 1556 -91 
Q 1019 -91 701 211 
Q 384 513 384 1019 
Q 384 1609 779 1909 
Q 1175 2209 1959 2209 
L 2766 2209 
L 2766 2266 
Q 2766 2663 2505 2880 
Q 2244 3097 1772 3097 
Q 1472 3097 1187 3025 
Q 903 2953 641 2809 
L 641 3341 
Q 956 3463 1253 3523 
Q 1550 3584 1831 3584 
Q 2591 3584 2966 3190 
Q 3341 2797 3341 1997 
z
" transform="scale(0.015625)"/>
      <path id="DejaVuSans-6a" d="M 603 3500 
L 1178 3500 
L 1178 -63 
Q 1178 -731 923 -1031 
Q 669 -1331 103 -1331 
L -116 -1331 
L -116 -844 
L 38 -844 
Q 366 -844 484 -692 
Q 603 -541 603 -63 
L 603 3500 
z
M 603 4863 
L 1178 4863 
L 1178 4134 
L 603 4134 
L 603 4863 
z
" transform="scale(0.015625)"/>
      <path id="DejaVuSans-65" d="M 3597 1894 
L 3597 1613 
L 953 1613 
Q 991 1019 1311 708 
Q 1631 397 2203 397 
Q 2534 397 2845 478 
Q 3156 559 3463 722 
L 3463 178 
Q 3153 47 2828 -22 
Q 2503 -91 2169 -91 
Q 1331 -91 842 396 
Q 353 884 353 1716 
Q 353 2575 817 3079 
Q 1281 3584 2069 3584 
Q 2775 3584 3186 3129 
Q 3597 2675 3597 1894 
z
M 3022 2063 
Q 3016 2534 2758 2815 
Q 2500 3097 2075 3097 
Q 1594 3097 1305 2825 
Q 1016 2553 972 2059 
L 3022 2063 
z
" transform="scale(0.015625)"/>
      <path id="DejaVuSans-63" d="M 3122 3366 
L 3122 2828 
Q 2878 2963 2633 3030 
Q 2388 3097 2138 3097 
Q 1578 3097 1268 2742 
Q 959 2388 959 1747 
Q 959 1106 1268 751 
Q 1578 397 2138 397 
Q 2388 397 2633 464 
Q 2878 531 3122 666 
L 3122 134 
Q 2881 22 2623 -34 
Q 2366 -91 2075 -91 
Q 1284 -91 818 406 
Q 353 903 353 1747 
Q 353 2603 823 3093 
Q 1294 3584 2113 3584 
Q 2378 3584 2631 3529 
Q 2884 3475 3122 3366 
z
" transform="scale(0.015625)"/>
      <path id="DejaVuSans-74" d="M 1172 4494 
L 1172 3500 
L 2356 3500 
L 2356 3053 
L 1172 3053 
L 1172 1153 
Q 1172 725 1289 603 
Q 1406 481 1766 481 
L 2356 481 
L 2356 0 
L 1766 0 
Q 1100 0 847 248 
Q 594 497 594 1153 
L 594 3053 
L 172 3053 
L 172 3500 
L 594 3500 
L 594 4494 
L 1172 4494 
z
" transform="scale(0.015625)"/>
      <path id="DejaVuSans-6f" d="M 1959 3097 
Q 1497 3097 1228 2736 
Q 959 2375 959 1747 
Q 959 1119 1226 758 
Q 1494 397 1959 397 
Q 2419 397 2687 759 
Q 2956 1122 2956 1747 
Q 2956 2369 2687 2733 
Q 2419 3097 1959 3097 
z
M 1959 3584 
Q 2709 3584 3137 3096 
Q 3566 2609 3566 1747 
Q 3566 888 3137 398 
Q 2709 -91 1959 -91 
Q 1206 -91 779 398 
Q 353 888 353 1747 
Q 353 2609 779 3096 
Q 1206 3584 1959 3584 
z
" transform="scale(0.015625)"/>
      <path id="DejaVuSans-79" d="M 2059 -325 
Q 1816 -950 1584 -1140 
Q 1353 -1331 966 -1331 
L 506 -1331 
L 506 -850 
L 844 -850 
Q 1081 -850 1212 -737 
Q 1344 -625 1503 -206 
L 1606 56 
L 191 3500 
L 800 3500 
L 1894 763 
L 2988 3500 
L 3597 3500 
L 2059 -325 
z
" transform="scale(0.015625)"/>
     </defs>
     <use xlink:href="#DejaVuSans-54"/>
     <use xlink:href="#DejaVuSans-72" x="46.333984"/>
     <use xlink:href="#DejaVuSans-61" x="87.447266"/>
     <use xlink:href="#DejaVuSans-6a" x="148.726562"/>
     <use xlink:href="#DejaVuSans-65" x="176.509766"/>
     <use xlink:href="#DejaVuSans-63" x="238.033203"/>
     <use xlink:href="#DejaVuSans-74" x="293.013672"/>
     <use xlink:href="#DejaVuSans-6f" x="332.222656"/>
     <use xlink:href="#DejaVuSans-72" x="393.404297"/>
     <use xlink:href="#DejaVuSans-79" x="434.517578"/>
    </g>
   </g>
   <g id="text_14">
    <!-- Auxiliary circle -->
    <g style="fill: #4c80ff" transform="translate(233.19 83.8476)scale(0.12 -0.12)">
     <defs>
      <path id="DejaVuSans-41" d="M 2188 4044 
L 1331 1722 
L 3047 1722 
L 2188 4044 
z
M 1831 4666 
L 2547 4666 
L 4325 0 
L 3669 0 
L 3244 1197 
L 1141 1197 
L 716 0 
L 50 0 
L 1831 4666 
z
" transform="scale(0.015625)"/>
      <path id="DejaVuSans-75" d="M 544 1381 
L 544 3500 
L 1119 3500 
L 1119 1403 
Q 1119 906 1312 657 
Q 1506 409 1894 409 
Q 2359 409 2629 706 
Q 2900 1003 2900 1516 
L 2900 3500 
L 3475 3500 
L 3475 0 
L 2900 0 
L 2900 538 
Q 2691 219 2414 64 
Q 2138 -91 1772 -91 
Q 1169 -91 856 284 
Q 544 659 544 1381 
z
M 1991 3584 
L 1991 3584 
z
" transform="scale(0.015625)"/>
      <path id="DejaVuSans-78" d="M 3513 3500 
L 2247 1797 
L 3578 0 
L 2900 0 
L 1881 1375 
L 863 0 
L 184 0 
L 1544 1831 
L 300 3500 
L 978 3500 
L 1906 2253 
L 2834 3500 
L 3513 3500 
z
" transform="scale(0.015625)"/>
      <path id="DejaVuSans-69" d="M 603 3500 
L 1178 3500 
L 1178 0 
L 603 0 
L 603 3500 
z
M 603 4863 
L 1178 4863 
L 1178 4134 
L 603 4134 
L 603 4863 
z
" transform="scale(0.015625)"/>
      <path id="DejaVuSans-6c" d="M 603 4863 
L 1178 4863 
L 1178 0 
L 603 0 
L 603 4863 
z
" transform="scale(0.015625)"/>
      <path id="DejaVuSans-20" transform="scale(0.015625)"/>
     </defs>
     <use xlink:href="#DejaVuSans-41"/>
     <use xlink:href="#DejaVuSans-75" x="68.408203"/>
     <use xlink:href="#DejaVuSans-78" x="131.787109"/>
     <use xlink:href="#DejaVuSans-69" x="190.966797"/>
     <use xlink:href="#DejaVuSans-6c" x="218.75"/>
     <use xlink:href="#DejaVuSans-69" x="246.533203"/>
     <use xlink:href="#DejaVuSans-61" x="274.316406"/>
     <use xlink:href="#DejaVuSans-72" x="335.595703"/>
     <use xlink:href="#DejaVuSans-79" x="376.708984"/>
     <use xlink:href="#DejaVuSans-20" x="435.888672"/>
     <use xlink:href="#DejaVuSans-63" x="467.675781"/>
     <use xlink:href="#DejaVuSans-69" x="522.65625"/>
     <use xlink:href="#DejaVuSans-72" x="550.439453"/>
     <use xlink:href="#DejaVuSans-63" x="589.302734"/>
     <use xlink:href="#DejaVuSans-6c" x="644.283203"/>
     <use xlink:href="#DejaVuSans-65" x="672.066406"/>
    </g>
   </g>
  </g>
 </g>
 <defs>
  <clipPath id="p2658c2250f">
   <rect x="7.2" y="7.2" width="334.8" height="326.16"/>
  </clipPath>
 </defs>
</svg>
