<?xml version="1.0" encoding="UTF-8"?>
<svg version="1.1" xmlns="http://www.w3.org/2000/svg" width="258" height="325">
<path d="M0 0 C85.14 0 170.28 0 258 0 C258 107.25 258 214.5 258 325 C172.86 325 87.72 325 0 325 C0 217.75 0 110.5 0 0 Z " fill="#FDF6F7" transform="translate(0,0)"/>
<path d="M0 0 C85.14 0 170.28 0 258 0 C258 107.25 258 214.5 258 325 C172.86 325 87.72 325 0 325 C0 217.75 0 110.5 0 0 Z M98 18 C96.85144531 18.45890625 95.70289062 18.9178125 94.51953125 19.390625 C88.27795213 21.88842119 88.27795213 21.88842119 84.67578125 27.1953125 C84.34126953 28.58363281 84.34126953 28.58363281 84 30 C82.1746875 29.690625 82.1746875 29.690625 80.3125 29.375 C72.75292383 29.38686747 67.32812863 35.22827442 62 40 C61.05769531 40.84175781 60.11539063 41.68351562 59.14453125 42.55078125 C48.16878259 52.98803719 36.65939834 66.80658829 31 81 C31.16405046 84.19774512 31.16405046 84.19774512 32 87 C32.185625 87.78375 32.37125 88.5675 32.5625 89.375 C32.706875 89.91125 32.85125 90.4475 33 91 C31.9275 91.12375 30.855 91.2475 29.75 91.375 C27.29140789 92.11060286 26.26174256 92.60911956 24.8203125 94.76171875 C23.70687503 97.47169672 22.84148615 100.19277496 22 103 C21.58570271 104.28159551 21.17027011 105.56282438 20.75390625 106.84375 C16.48598842 120.30435031 14.02660698 133.72710101 13.0625 147.8125 C12.99256836 148.66690674 12.92263672 149.52131348 12.85058594 150.40161133 C12.53820264 155.36516742 12.53820264 155.36516742 14.99609375 159.57421875 C15.65738281 160.04472656 16.31867187 160.51523438 17 161 C15.84826645 163.46800047 14.95216435 165.04783565 13 167 C11.87025513 185.91348742 16.51992111 206.31230553 23 224 C23.23807373 224.67345459 23.47614746 225.34690918 23.72143555 226.04077148 C24.50215321 228.18074133 24.50215321 228.18074133 26 231 C29.55892288 232.53045985 29.55892288 232.53045985 33 233 C32.505 234.175625 32.01 235.35125 31.5 236.5625 C29.9548713 243.59283559 34.13183859 249.36637576 37.74853516 255.10107422 C47.25042228 269.5188811 59.82938837 285.43817237 75 294 C77.75469965 294.27317766 77.75469965 294.27317766 80.375 293.75 C81.24898438 293.62109375 82.12296875 293.4921875 83.0234375 293.359375 C83.67570312 293.24078125 84.32796875 293.1221875 85 293 C84.9175 294.03125 84.835 295.0625 84.75 296.125 C85.18944431 299.06452612 85.79792706 299.84826679 88.2109375 301.66015625 C91.41159911 303.33771481 94.62835402 304.70004316 98 306 C99.01578125 306.41636719 100.0315625 306.83273437 101.078125 307.26171875 C118.65254995 313.19621059 141.62905347 312.38032396 159 306 C160.17046875 305.57976562 161.3409375 305.15953125 162.546875 304.7265625 C168.67767859 302.5565882 168.67767859 302.5565882 173 298 C173.16713569 295.37468476 173.16713569 295.37468476 173 293 C173.57105469 293.18820312 174.14210937 293.37640625 174.73046875 293.5703125 C179.30259073 294.60249266 182.01147992 294.55269472 186.171875 292.2265625 C189.64789859 289.7139508 192.83834704 286.89249312 196 284 C196.94101563 283.15695312 197.88203125 282.31390625 198.8515625 281.4453125 C209.3995829 271.44445166 225.90762765 254.26065678 227.26171875 239.0625 C227.04901249 236.35250758 227.04901249 236.35250758 226 233 C226.93585938 232.80019531 227.87171875 232.60039062 228.8359375 232.39453125 C232.2098568 231.29024551 232.2098568 231.29024551 233.5390625 228.19921875 C233.89742187 227.04035156 234.25578125 225.88148438 234.625 224.6875 C234.98851562 223.55699219 235.35203125 222.42648438 235.7265625 221.26171875 C235.91798828 220.61348145 236.10941406 219.96524414 236.30664062 219.29736328 C236.83000306 217.5632645 237.3866208 215.83915333 237.95898438 214.12060547 C240.59315923 206.05743057 242.13617436 198.14934093 243.25 189.75 C243.42273438 188.54859375 243.59546875 187.3471875 243.7734375 186.109375 C244.65963887 179.69496512 245.39927277 173.47487339 245 167 C243.18735352 164.43009002 243.18735352 164.43009002 241 163 C242.15173355 160.53199953 243.04783565 158.95216435 245 157 C245.15698003 154.5880473 245.15698003 154.5880473 244.8984375 151.78515625 C244.82270508 150.71579834 244.74697266 149.64644043 244.66894531 148.54467773 C244.57194336 147.39555908 244.47494141 146.24644043 244.375 145.0625 C244.27799805 143.88695557 244.18099609 142.71141113 244.08105469 141.50024414 C242.59351629 124.99688194 239.48456534 107.96913067 232 93 C230.02111039 92.27306096 228.02045442 91.60183749 226 91 C226.18820313 90.47535156 226.37640625 89.95070313 226.5703125 89.41015625 C228.36209377 81.82663129 225.38826954 76.95282744 221.52197266 70.6796875 C211.87568814 55.74943007 198.9336702 38.45177289 183 30 C179.68696761 29.39501148 177.38151342 29.55652283 174 30 C173.47019531 28.36804688 173.47019531 28.36804688 172.9296875 26.703125 C171.55769557 23.52368979 171.03591974 23.02178591 167.8828125 21.109375 C166.02269531 20.43648437 166.02269531 20.43648437 164.125 19.75 C162.91070312 19.29109375 161.69640625 18.8321875 160.4453125 18.359375 C149.63643541 14.89773344 139.4737896 13.47124617 128.125 13.5625 C127.46735657 13.56554138 126.80971313 13.56858276 126.13214111 13.57171631 C116.17315581 13.63980624 107.29552315 14.17312643 98 18 Z " fill="#E11D3A" transform="translate(0,0)"/>
<path d="M0 0 C0.33 0 0.66 0 1 0 C1.10957031 1.0415625 1.21914063 2.083125 1.33203125 3.15625 C3.05543044 18.98730178 5.85436302 33.91796058 11 49 C11.31839844 50.02996094 11.63679687 51.05992187 11.96484375 52.12109375 C13.46456429 56.83297615 13.46456429 56.83297615 16.8046875 60.26953125 C18.92149017 61.25873599 18.92149017 61.25873599 22 62 C21.484375 63.155 20.96875 64.31 20.4375 65.5 C18.98619962 72.17180536 22.77401799 77.29180627 26.16796875 82.734375 C36.17585876 98.05336203 47.41440275 111.81615547 62 123 C62.62648437 123.57363281 63.25296875 124.14726562 63.8984375 124.73828125 C66.89750706 126.53883788 69.28916937 126.29132492 72.75 126.1875 C73.92046875 126.16042969 75.0909375 126.13335937 76.296875 126.10546875 C77.18890625 126.07066406 78.0809375 126.03585937 79 126 C79.66 129.3 80.32 132.6 81 136 C83.01484511 136.67161504 85.03013539 137.34190791 87.046875 138.0078125 C89.20934205 138.73435566 91.36468756 139.4821896 93.515625 140.2421875 C119.76945626 149.45706304 146.40385977 147.65756014 172.0078125 137.171875 C175 136 175 136 177 136 C177.66 132.7 178.32 129.4 179 126 C179.82242188 126.0928125 180.64484375 126.185625 181.4921875 126.28125 C187.83681562 126.69152618 192.11671872 126.64662209 197.1875 122.5625 C198.81238345 121.06382109 200.41644813 119.54228668 202 118 C203.24910156 116.93652344 203.24910156 116.93652344 204.5234375 115.8515625 C217.16628003 105.07597056 232.58277723 87.16568063 238 71 C237.24270539 67.87377467 237.24270539 67.87377467 236 65 C236 63.68 236 62.36 236 61 C237.8871875 60.814375 237.8871875 60.814375 239.8125 60.625 C242.05943451 60.13433015 242.05943451 60.13433015 244 59 C245.27927825 56.75393896 245.7352787 54.66030211 246.296875 52.13671875 C246.94940335 49.22571728 247.81836261 46.46550743 248.77954102 43.64404297 C253.48532647 29.65066091 256.38874704 14.76175888 257 0 C257.33 0 257.66 0 258 0 C258 48.84 258 97.68 258 148 C172.86 148 87.72 148 0 148 C0 99.16 0 50.32 0 0 Z " fill="#FEFCFD" transform="translate(0,177)"/>
<path d="M0 0 C0.94470657 -0.01283524 1.88941315 -0.02567047 2.86274719 -0.03889465 C3.88668076 -0.04628159 4.91061432 -0.05366852 5.96557617 -0.0612793 C7.01629807 -0.06935104 8.06701996 -0.07742279 9.14958191 -0.08573914 C11.37639716 -0.09958619 13.60323369 -0.11030555 15.83007812 -0.11816406 C19.23437768 -0.13537586 22.63770602 -0.17925718 26.04174805 -0.22338867 C28.20385027 -0.2335155 30.36596076 -0.24203163 32.52807617 -0.2487793 C34.05486748 -0.27504143 34.05486748 -0.27504143 35.61250305 -0.30183411 C42.6696336 -0.28019618 42.6696336 -0.28019618 46.43115234 1.93481445 C48.33260009 4.0507597 50.02556949 6.11086773 51.60229492 8.4777832 C52.42407227 9.69691406 52.42407227 9.69691406 53.26245117 10.94067383 C54.09583008 12.20234375 54.09583008 12.20234375 54.94604492 13.48950195 C56.06000116 15.15268255 57.17457508 16.81544963 58.28979492 18.4777832 C58.81959961 19.27909668 59.3494043 20.08041016 59.89526367 20.90600586 C61.3089723 22.97626997 62.8102497 24.93267546 64.35229492 26.9074707 C66.70725584 30.58490034 67.36692381 31.92679169 66.44604492 36.17700195 C64.84836797 38.97463789 62.90691356 41.42622608 60.88354492 43.92700195 C59.77669764 45.34128875 58.67122478 46.7566523 57.56713867 48.1730957 C57.02943848 48.8561377 56.49173828 49.53917969 55.93774414 50.24291992 C53.4467386 53.47266556 51.19398538 56.85785246 48.94604492 60.2590332 C46.74145403 63.07792417 44.74309708 64.9425993 41.15190125 65.59159851 C40.31141739 65.60906631 39.47093353 65.62653412 38.60498047 65.64453125 C37.64685959 65.67012619 36.68873871 65.69572113 35.70158386 65.72209167 C34.15776787 65.73651054 34.15776787 65.73651054 32.58276367 65.7512207 C30.98474663 65.77331352 30.98474663 65.77331352 29.35444641 65.79585266 C27.10095386 65.81979583 24.84735709 65.83522232 22.59375 65.84277344 C19.15532511 65.86436518 15.72137766 65.94455038 12.28393555 66.02661133 C10.09190172 66.04260821 7.89983888 66.05509256 5.70776367 66.0637207 C4.6846257 66.09559982 3.66148773 66.12747894 2.60734558 66.1603241 C-1.49424573 66.12183866 -4.38486829 66.09244209 -7.68641663 63.50720215 C-9.49134305 61.48232857 -11.04275941 59.42738486 -12.55395508 57.17700195 C-13.19953369 56.31220215 -13.8451123 55.44740234 -14.51025391 54.55639648 C-15.00549561 53.81502441 -15.5007373 53.07365234 -16.01098633 52.30981445 C-16.56592773 51.48739258 -17.12086914 50.6649707 -17.69262695 49.81762695 C-18.52117187 48.57239258 -18.52117187 48.57239258 -19.36645508 47.30200195 C-20.49608052 45.61584177 -21.627506 43.9308857 -22.76098633 42.24731445 C-23.4953894 41.14540771 -23.4953894 41.14540771 -24.24462891 40.02124023 C-25.56029923 38.05916931 -25.56029923 38.05916931 -27.55395508 36.17700195 C-28.40543239 31.83978939 -27.28582058 29.36252798 -24.99145508 25.78637695 C-23.86100098 24.1558149 -22.71435079 22.53639341 -21.55395508 20.92700195 C-20.6667981 19.66654053 -20.6667981 19.66654053 -19.76171875 18.38061523 C-6.78428969 0.08015669 -6.78428969 0.08015669 0 0 Z " fill="#E11937" transform="translate(109.553955078125,58.822998046875)"/>
<path d="M0 0 C0.9614241 -0.01591187 1.92284821 -0.03182373 2.91340637 -0.04821777 C4.46966988 -0.0485199 4.46966988 -0.0485199 6.05737305 -0.04882812 C7.12650436 -0.05644165 8.19563568 -0.06405518 9.29716492 -0.07189941 C11.56087915 -0.08271138 13.82464331 -0.08554909 16.08837891 -0.08105469 C19.54569303 -0.08008469 23.00077147 -0.12164781 26.45776367 -0.16601562 C28.65762884 -0.17122433 30.85750172 -0.17391079 33.05737305 -0.17382812 C34.08880936 -0.19022339 35.12024567 -0.20661865 36.18293762 -0.22351074 C44.207073 -0.14660329 44.207073 -0.14660329 47.78271484 2.7253418 C49.7029168 4.81685162 51.47933767 6.76384235 53.0378418 9.12695312 C53.48474365 9.79227051 53.93164551 10.45758789 54.39208984 11.14306641 C55.06751831 12.17729736 55.06751831 12.17729736 55.7565918 13.23242188 C56.70933565 14.66453269 57.66374596 16.09553635 58.61987305 17.52539062 C59.29783936 18.54125244 59.29783936 18.54125244 59.98950195 19.57763672 C61.93443159 22.40546698 64.08539817 25.05319121 66.33081055 27.64648438 C67.86213893 30.57991511 67.79605228 32.11097764 67.2565918 35.41992188 C65.35465196 38.90034501 63.04473033 42.04346038 60.6940918 45.23242188 C60.08500977 46.08384766 59.47592773 46.93527344 58.84838867 47.8125 C47.25482574 63.92080491 47.25482574 63.92080491 44.2565918 65.41992188 C42.74144058 65.52981452 41.2216619 65.57897648 39.70263672 65.59692383 C38.75793015 65.60975906 37.81322357 65.6225943 36.83988953 65.63581848 C35.81595596 65.64320541 34.7920224 65.65059235 33.73706055 65.65820312 C32.68633865 65.66627487 31.63561676 65.67434662 30.55305481 65.68266296 C28.32623956 65.69651002 26.09940303 65.70722938 23.87255859 65.71508789 C20.46825904 65.73229969 17.0649307 65.77618101 13.66088867 65.8203125 C11.49878645 65.83043933 9.33667596 65.83895546 7.17456055 65.84570312 C5.64776924 65.87196526 5.64776924 65.87196526 4.09013367 65.89875793 C-2.96699688 65.87712001 -2.96699688 65.87712001 -6.72851562 63.66210938 C-8.62996338 61.54616413 -10.32293277 59.4860561 -11.8996582 57.11914062 C-12.44750977 56.30638672 -12.99536133 55.49363281 -13.55981445 54.65625 C-14.11540039 53.81513672 -14.67098633 52.97402344 -15.2434082 52.10742188 C-16.35736444 50.44424127 -17.47193836 48.7814742 -18.5871582 47.11914062 C-19.11696289 46.31782715 -19.64676758 45.51651367 -20.19262695 44.69091797 C-21.60633558 42.62065385 -23.10761298 40.66424837 -24.6496582 38.68945312 C-27.00461912 35.01202349 -27.66428709 33.67013214 -26.7434082 29.41992188 C-25.14572518 26.62227531 -23.20409795 24.17084661 -21.1809082 21.66992188 C-20.07546242 20.2555561 -18.97129215 18.84019246 -17.8684082 17.42382812 C-17.33086914 16.74078613 -16.79333008 16.05774414 -16.23950195 15.35400391 C-13.73242901 12.11297391 -11.440595 8.73052119 -9.14575195 5.33789062 C-6.34219642 1.50350131 -4.89645974 0.04874449 0 0 Z " fill="#E11937" transform="translate(108.743408203125,199.580078125)"/>
<path d="M0 0 C0.98474808 -0.01606293 1.96949615 -0.03212585 2.98408508 -0.04867554 C7.48970898 -0.09308686 11.99518504 -0.13418859 16.50097656 -0.15722656 C18.87835475 -0.17379139 21.25568303 -0.20108803 23.6328125 -0.23925781 C27.05779904 -0.29398146 30.48161776 -0.31589433 33.90698242 -0.33056641 C34.96859085 -0.35323578 36.03019928 -0.37590515 37.12397766 -0.39926147 C44.50634305 -0.37809882 44.50634305 -0.37809882 48.28857422 2.47802734 C49.26564331 3.821875 49.26564331 3.821875 50.26245117 5.19287109 C50.78709961 5.85851074 51.31174805 6.52415039 51.85229492 7.20996094 C52.29702148 7.85143066 52.74174805 8.49290039 53.19995117 9.15380859 C53.70268555 9.87310547 54.20541992 10.59240234 54.72338867 11.33349609 C55.48522461 12.43951172 55.48522461 12.43951172 56.26245117 13.56787109 C57.28312955 15.03412481 58.30396126 16.50027179 59.32495117 17.96630859 C59.81350586 18.67883789 60.30206055 19.39136719 60.80541992 20.12548828 C61.75235145 21.46909019 62.73303085 22.78974151 63.75073242 24.08056641 C65.78724897 26.68931542 67.17991764 28.84781563 67.95385742 32.08349609 C66.89247674 36.85671091 64.14984529 40.11551493 61.19995117 43.94287109 C60.00403489 45.54007544 58.80871805 47.1377288 57.61401367 48.73583984 C57.03554687 49.5007373 56.45708008 50.26563477 55.86108398 51.05371094 C53.30512172 54.47389136 50.92109351 58.00222358 48.53198242 61.54052734 C47.26245117 63.19287109 47.26245117 63.19287109 45.26245117 64.19287109 C43.68616713 64.30811281 42.10522026 64.36234744 40.52490234 64.38574219 C39.54015427 64.40180511 38.55540619 64.41786804 37.54081726 64.43441772 C33.03519336 64.47882904 28.52971731 64.51993078 24.02392578 64.54296875 C21.64654759 64.55953358 19.26921931 64.58683021 16.89208984 64.625 C13.4671033 64.67972365 10.04328459 64.70163652 6.61791992 64.71630859 C5.55631149 64.73897797 4.49470306 64.76164734 3.40092468 64.78500366 C-3.98144071 64.763841 -3.98144071 64.763841 -7.76367188 61.90771484 C-8.74074097 60.56386719 -8.74074097 60.56386719 -9.73754883 59.19287109 C-10.26219727 58.52723145 -10.7868457 57.8615918 -11.32739258 57.17578125 C-11.77211914 56.53431152 -12.2168457 55.8928418 -12.67504883 55.23193359 C-13.1777832 54.51263672 -13.68051758 53.79333984 -14.19848633 53.05224609 C-14.70637695 52.31490234 -15.21426758 51.57755859 -15.73754883 50.81787109 C-16.75822721 49.35161738 -17.77905891 47.88547039 -18.80004883 46.41943359 C-19.28860352 45.7069043 -19.7771582 44.994375 -20.28051758 44.26025391 C-21.22744911 42.916652 -22.2081285 41.59600068 -23.22583008 40.30517578 C-25.26234662 37.69642677 -26.65501529 35.53792655 -27.42895508 32.30224609 C-26.3675744 27.52903128 -23.62494295 24.27022725 -20.67504883 20.44287109 C-19.47913255 18.84566675 -18.2838157 17.24801339 -17.08911133 15.64990234 C-16.51064453 14.88500488 -15.93217773 14.12010742 -15.33618164 13.33203125 C-12.78021937 9.91185083 -10.39619116 6.3835186 -8.00708008 2.84521484 C-5.71942494 -0.13225631 -3.55266541 0.05259303 0 0 Z " fill="#E11936" transform="translate(108.737548828125,129.80712890625)"/>
<path d="M0 0 C39.27 0 78.54 0 119 0 C119 48.18 119 96.36 119 146 C118.67 146 118.34 146 118 146 C117.90203125 144.99324219 117.8040625 143.98648438 117.703125 142.94921875 C116.13369445 127.78475589 113.19516282 113.15343467 108.75 98.5625 C108.49903564 97.66821289 108.24807129 96.77392578 107.98950195 95.85253906 C106.44958152 91.03717989 106.44958152 91.03717989 102.98242188 87.51904297 C101.01243447 86.52667266 99.09114256 85.69631135 97 85 C97.95070423 80.11066398 97.95070423 80.11066398 98.765625 78.28125 C99.14660156 74.57307816 97.12929964 71.8483223 95.3125 68.75 C94.90894287 68.04979736 94.50538574 67.34959473 94.08959961 66.62817383 C84.39179875 50.22341418 72.13392076 35.60428429 57 24 C56.37351563 23.42636719 55.74703125 22.85273438 55.1015625 22.26171875 C52.10249294 20.46116212 49.71083063 20.70867508 46.25 20.8125 C45.07953125 20.83957031 43.9090625 20.86664062 42.703125 20.89453125 C41.81109375 20.92933594 40.9190625 20.96414062 40 21 C40.04447266 20.12988281 40.04447266 20.12988281 40.08984375 19.2421875 C39.90098421 16.30760083 39.47792123 14.56536896 38 12 C27.16746292 5.24438245 12.43134147 2.95876051 0 1 C0 0.67 0 0.34 0 0 Z " fill="#FEFDFD" transform="translate(139,0)"/>
<path d="M0 0 C38.61 0 77.22 0 117 0 C117 0.33 117 0.66 117 1 C116.34257813 1.07476562 115.68515625 1.14953125 115.0078125 1.2265625 C108.2947513 2.15438397 102.03428011 3.79582731 95.625 5.9375 C94.86461426 6.19031738 94.10422852 6.44313477 93.32080078 6.70361328 C86.94321129 8.87901504 86.94321129 8.87901504 81 12 C79.86748899 14.22443625 79.86748899 14.22443625 79.625 16.6875 C79.49351563 17.49574219 79.36203125 18.30398437 79.2265625 19.13671875 C79.15179688 19.75160156 79.07703125 20.36648437 79 21 C78.26136719 20.82339844 77.52273437 20.64679687 76.76171875 20.46484375 C71.98313503 19.64513752 68.48294792 19.17749064 64.140625 21.5859375 C61.28735401 23.93617517 58.64572635 26.41898926 56 29 C55.09378906 29.77085938 54.18757813 30.54171875 53.25390625 31.3359375 C43.30855712 39.82827818 35.83356025 50.09133714 28.5625 60.875 C27.96103149 61.76578247 27.96103149 61.76578247 27.34741211 62.67456055 C22.06421565 70.15708252 22.06421565 70.15708252 20.046875 78.75 C20.27890625 79.4925 20.5109375 80.235 20.75 81 C20.97171875 81.763125 21.1934375 82.52625 21.421875 83.3125 C21.61265625 83.869375 21.8034375 84.42625 22 85 C20.1746875 85.556875 20.1746875 85.556875 18.3125 86.125 C14.12364833 88.27104901 12.92744683 90.5740379 11.3125 94.9375 C6.18143424 111.50945564 2.27244435 128.68805983 1 146 C0.67 146 0.34 146 0 146 C0 97.82 0 49.64 0 0 Z " fill="#FEFDFE" transform="translate(0,0)"/>
<path d="M0 0 C1.09723137 -0.00786278 1.09723137 -0.00786278 2.21662903 -0.0158844 C3.74849181 -0.02225646 5.28040385 -0.02103071 6.81225586 -0.01245117 C9.14980661 -0.00388692 11.48495205 -0.03285125 13.82226562 -0.06445312 C15.31900969 -0.06606422 16.81575805 -0.06548937 18.3125 -0.0625 C19.35170845 -0.07935097 19.35170845 -0.07935097 20.41191101 -0.09654236 C25.22389763 -0.02757281 27.58739389 1.03615716 30.95703125 4.43359375 C32.63867188 6.52075195 32.63867188 6.52075195 34.11328125 8.734375 C34.93505859 9.95350586 34.93505859 9.95350586 35.7734375 11.19726562 C36.60681641 12.45893555 36.60681641 12.45893555 37.45703125 13.74609375 C38.57098749 15.40927435 39.68556141 17.07204142 40.80078125 18.734375 C41.33058594 19.53568848 41.86039062 20.33700195 42.40625 21.16259766 C43.81995863 23.23286177 45.32123602 25.18926726 46.86328125 27.1640625 C48.95703125 30.43359375 48.95703125 30.43359375 49.6484375 33.32421875 C48.58705682 38.09743357 45.84442537 41.35623759 42.89453125 45.18359375 C41.69861497 46.78079809 40.50329813 48.37845145 39.30859375 49.9765625 C38.73012695 50.74145996 38.15166016 51.50635742 37.55566406 52.29443359 C34.99970179 55.71461401 32.61567359 59.24294624 30.2265625 62.78125 C28.95703125 64.43359375 28.95703125 64.43359375 26.95703125 65.43359375 C25.37544918 65.54885435 23.78921716 65.60307306 22.20361328 65.62646484 C21.21563751 65.64252777 20.22766174 65.6585907 19.20974731 65.67514038 C14.69436276 65.71951752 10.17912566 65.76064334 5.66357422 65.78369141 C3.27936047 65.80026876 0.89519677 65.8275818 -1.48876953 65.86572266 C-4.92116144 65.92037101 -8.35238844 65.94234639 -11.78515625 65.95703125 C-13.38531082 65.99103531 -13.38531082 65.99103531 -15.01779175 66.02572632 C-22.35788189 66.00468645 -22.35788189 66.00468645 -25.7265625 63.1965332 C-27.07283803 60.37090261 -27.50603796 58.79840762 -27.36328125 55.703125 C-27.3262207 54.83123535 -27.28916016 53.9593457 -27.25097656 53.06103516 C-26.9337613 49.05414474 -26.52237669 45.09547227 -25.91796875 41.12109375 C-25.79107666 40.27659668 -25.66418457 39.43209961 -25.53344727 38.56201172 C-24.03742399 29.36261028 -21.54114607 20.42962299 -18.69091797 11.56347656 C-17.94691984 9.24223357 -17.94691984 9.24223357 -17.359375 6.01953125 C-15.66065556 2.68258089 -13.70652876 2.23086282 -10.27632141 1.03942871 C-6.86449677 0.11391315 -3.50893283 -0.01499995 0 0 Z " fill="#E11937" transform="translate(46.04296875,93.56640625)"/>
<path d="M0 0 C0.73286224 -0.00570007 1.46572449 -0.01140015 2.22079468 -0.01727295 C3.77592525 -0.02672864 5.33107591 -0.03325919 6.88623047 -0.03710938 C9.24353158 -0.04675266 11.59993718 -0.07774279 13.95703125 -0.109375 C15.47134902 -0.11591165 16.985673 -0.12115952 18.5 -0.125 C19.54421616 -0.1435202 19.54421616 -0.1435202 20.60952759 -0.16241455 C25.87509253 -0.13895641 29.87118117 0.9371727 34.6484375 3.203125 C36.34586663 5.89457152 37.12040809 8.56767095 37.8984375 11.640625 C38.13457764 12.47376221 38.37071777 13.30689941 38.61401367 14.1652832 C42.26282674 27.45907172 45.53232168 41.5621251 45.9609375 55.390625 C46.01701172 56.58751953 46.01701172 56.58751953 46.07421875 57.80859375 C45.43114024 61.42517289 44.40956735 62.73002305 41.6484375 65.203125 C37.94090248 65.9764481 34.27200364 65.90333093 30.49609375 65.8671875 C29.40380966 65.87197113 28.31152557 65.87675476 27.18614197 65.88168335 C24.87709106 65.88508448 22.56799214 65.8758673 20.2590332 65.85498047 C16.72693228 65.82824606 13.19801691 65.85471037 9.66601562 65.88671875 C7.42186799 65.88341419 5.17772234 65.877007 2.93359375 65.8671875 C1.35059227 65.88236923 1.35059227 65.88236923 -0.26438904 65.89785767 C-7.59039968 65.78096178 -7.59039968 65.78096178 -11.37329102 62.90917969 C-12.02612061 62.01618164 -12.6789502 61.12318359 -13.3515625 60.203125 C-13.87621094 59.53748535 -14.40085938 58.8718457 -14.94140625 58.18603516 C-15.38613281 57.54456543 -15.83085937 56.9030957 -16.2890625 56.2421875 C-16.79179687 55.52289063 -17.29453125 54.80359375 -17.8125 54.0625 C-18.32039062 53.32515625 -18.82828125 52.5878125 -19.3515625 51.828125 C-20.37224088 50.36187129 -21.39307259 48.8957243 -22.4140625 47.4296875 C-22.90261719 46.7171582 -23.39117187 46.00462891 -23.89453125 45.27050781 C-24.84146278 43.9269059 -25.82214218 42.60625458 -26.83984375 41.31542969 C-28.84895523 38.74178617 -30.26104039 36.55689519 -31.07421875 33.37890625 C-29.91151896 28.26931206 -26.86409896 24.56233099 -23.7890625 20.390625 C-23.17998047 19.53919922 -22.57089844 18.68777344 -21.94335938 17.81054688 C-9.16422463 0.05498717 -9.16422463 0.05498717 0 0 Z " fill="#E11937" transform="translate(193.3515625,93.796875)"/>
<path d="M0 0 C1.63842613 -0.00929787 1.63842613 -0.00929787 3.30995178 -0.01878357 C5.61897897 -0.02588465 7.92805733 -0.02270278 10.23706055 -0.01000977 C13.76902629 0.00384299 17.29833671 -0.03019835 20.83007812 -0.06835938 C23.0742194 -0.06931069 25.31836399 -0.06745111 27.5625 -0.0625 C28.61783432 -0.07575821 29.67316864 -0.08901642 30.76048279 -0.10267639 C38.08804514 -0.0097002 38.08804514 -0.0097002 41.86938477 2.8581543 C42.52221436 3.75187744 43.17504395 4.64560059 43.84765625 5.56640625 C44.37230469 6.2320459 44.89695313 6.89768555 45.4375 7.58349609 C45.88222656 8.22496582 46.32695313 8.86643555 46.78515625 9.52734375 C47.28789063 10.24664062 47.790625 10.9659375 48.30859375 11.70703125 C49.07042969 12.81304687 49.07042969 12.81304687 49.84765625 13.94140625 C50.86833463 15.40765996 51.88916634 16.87380695 52.91015625 18.33984375 C53.39871094 19.05237305 53.88726562 19.76490234 54.390625 20.49902344 C55.33755653 21.84262535 56.31823593 23.16327667 57.3359375 24.45410156 C59.34504898 27.02774508 60.75713414 29.21263606 61.5703125 32.390625 C60.40761271 37.50021919 57.36019271 41.20720026 54.28515625 45.37890625 C53.67607422 46.23033203 53.06699219 47.08175781 52.43945312 47.95898438 C40.84589019 64.06728928 40.84589019 64.06728928 37.84765625 65.56640625 C35.37603521 65.68943739 32.93369385 65.75475964 30.4609375 65.76953125 C29.72570358 65.77523132 28.99046967 65.7809314 28.23295593 65.7868042 C26.67362915 65.79625873 25.11428234 65.80278998 23.55493164 65.80664062 C21.1866479 65.81629822 18.81925007 65.84729565 16.45117188 65.87890625 C14.93359888 65.88544142 13.4160197 65.89068987 11.8984375 65.89453125 C10.84647942 65.91305145 10.84647942 65.91305145 9.77326965 65.9319458 C4.67972676 65.90925657 1.2898263 64.87852799 -3.15234375 62.56640625 C-4.5703125 60.54296875 -4.5703125 60.54296875 -5.33984375 58.19140625 C-5.64148437 57.29679687 -5.943125 56.4021875 -6.25390625 55.48046875 C-6.55039062 54.51882812 -6.846875 53.5571875 -7.15234375 52.56640625 C-7.49007813 51.60476562 -7.8278125 50.643125 -8.17578125 49.65234375 C-12.48743139 36.84706702 -14.99566886 22.34839792 -15.46484375 8.81640625 C-15.50222656 8.0996875 -15.53960938 7.38296875 -15.578125 6.64453125 C-13.98032275 -1.15391642 -6.30168676 -0.02956002 0 0 Z " fill="#E11937" transform="translate(34.15234375,164.43359375)"/>
<path d="M0 0 C0.98797577 -0.01606293 1.97595154 -0.03212585 2.99386597 -0.04867554 C7.50925052 -0.09305268 12.02448762 -0.1341785 16.54003906 -0.15722656 C18.92425282 -0.17380392 21.30841652 -0.20111696 23.69238281 -0.23925781 C27.12477472 -0.29390617 30.55600172 -0.31588154 33.98876953 -0.33056641 C35.5889241 -0.36457047 35.5889241 -0.36457047 37.22140503 -0.39926147 C44.58626129 -0.37815061 44.58626129 -0.37815061 47.93286133 2.51586914 C49.68185197 6.07983167 49.53409319 8.4336935 49.18408203 12.38037109 C49.12317383 13.07453125 49.06226563 13.76869141 48.99951172 14.48388672 C48.78451302 16.72587317 48.52469633 18.95786964 48.24658203 21.19287109 C48.1545752 21.93359863 48.06256836 22.67432617 47.96777344 23.4375 C46.52403451 34.40275685 44.00299057 44.78258036 40.24658203 55.19287109 C39.84439453 56.43681641 39.44220703 57.68076172 39.02783203 58.96240234 C36.83079125 62.9469478 34.44608644 63.96078909 30.24658203 65.19287109 C27.51674808 65.48037747 25.02351127 65.63801504 22.30126953 65.62646484 C21.568367 65.6317067 20.83546448 65.63694855 20.08035278 65.64234924 C18.54251363 65.64873087 17.00462541 65.64748286 15.46679688 65.63891602 C13.12037498 65.6303667 10.7763603 65.65927906 8.43017578 65.69091797 C6.92887442 65.69252939 5.42756878 65.69195358 3.92626953 65.68896484 C3.23032684 65.70019882 2.53438416 65.7114328 1.81735229 65.7230072 C-3.00530702 65.65422389 -5.37706449 64.60045268 -8.75341797 61.19287109 C-10.43505859 59.10571289 -10.43505859 59.10571289 -11.90966797 56.89208984 C-12.45751953 56.07933594 -13.00537109 55.26658203 -13.56982422 54.42919922 C-14.12541016 53.58808594 -14.68099609 52.74697266 -15.25341797 51.88037109 C-16.36737421 50.21719049 -17.48194813 48.55442342 -18.59716797 46.89208984 C-19.12697266 46.09077637 -19.65677734 45.28946289 -20.20263672 44.46386719 C-21.61634535 42.39360307 -23.11762274 40.43719759 -24.65966797 38.46240234 C-26.75341797 35.19287109 -26.75341797 35.19287109 -27.44482422 32.30224609 C-26.38344354 27.52903128 -23.64081209 24.27022725 -20.69091797 20.44287109 C-19.49500169 18.84566675 -18.29968484 17.24801339 -17.10498047 15.64990234 C-16.52651367 14.88500488 -15.94804687 14.12010742 -15.35205078 13.33203125 C-12.79608851 9.91185083 -10.4120603 6.3835186 -8.02294922 2.84521484 C-5.73185729 -0.13672943 -3.55788656 0.05248809 0 0 Z " fill="#E11937" transform="translate(189.75341796875,164.80712890625)"/>
<path d="M0 0 C0.94455551 -0.01268417 1.88911102 -0.02536835 2.86228943 -0.03843689 C3.87590042 -0.03550125 4.88951141 -0.03256561 5.93383789 -0.02954102 C6.98172989 -0.03478287 8.02962189 -0.04002472 9.10926819 -0.04542542 C11.32413853 -0.05184533 13.53904298 -0.05050904 15.75390625 -0.04199219 C19.14067399 -0.03348699 22.5257526 -0.06223783 25.91235352 -0.09399414 C28.0653478 -0.09560638 30.21834507 -0.0950282 32.37133789 -0.09204102 C33.38292465 -0.10327499 34.39451141 -0.11450897 35.43675232 -0.12608337 C42.45621086 -0.05660077 42.45621086 -0.05660077 46.22753906 2.22094727 C48.98241288 5.24094012 51.30670073 8.33256585 53.59399414 11.71655273 C54.05676758 12.3552832 54.51954102 12.99401367 54.99633789 13.65209961 C57.27713897 17.01202597 58.18799086 19.00394279 58.50805664 23.13452148 C57.13953013 26.60560237 56.84087405 27.0146601 53.74633789 28.66967773 C31.51314497 37.94463213 8.80068408 37.32596893 -13.78100586 29.40405273 C-16.62866211 28.21264648 -16.62866211 28.21264648 -18.78100586 26.40405273 C-19.99993958 23.00276689 -20.38640181 20.75548227 -18.87719727 17.38647461 C-17.54792457 15.21979606 -16.11244394 13.19197717 -14.59350586 11.15405273 C-14.09786133 10.44764648 -13.6022168 9.74124023 -13.09155273 9.01342773 C-9.45830225 3.9451153 -6.65847775 0.04340946 0 0 Z " fill="#E11B39" transform="translate(109.781005859375,269.595947265625)"/>
<path d="M0 0 C1.23024902 0.30671631 1.23024902 0.30671631 2.48535156 0.61962891 C13.47420089 3.5854077 13.47420089 3.5854077 17.4375 6.75 C18.76171875 9.984375 18.76171875 9.984375 18.4375 13.75 C17.06085743 16.77787944 15.23275193 19.33978714 13.25 22 C12.75435547 22.70640625 12.25871094 23.4128125 11.74804688 24.140625 C5.87480542 32.33368045 5.87480542 32.33368045 1.16786194 33.13768005 C0.33911057 33.14308304 -0.48964081 33.14848602 -1.34350586 33.15405273 C-2.28806137 33.16673691 -3.23261688 33.17942108 -4.20579529 33.19248962 C-5.21940628 33.18955399 -6.23301727 33.18661835 -7.27734375 33.18359375 C-8.32523575 33.1888356 -9.37312775 33.19407745 -10.45277405 33.19947815 C-12.66764439 33.20589806 -14.88254883 33.20456177 -17.09741211 33.19604492 C-20.48417985 33.18753973 -23.86925846 33.21629057 -27.25585938 33.24804688 C-29.40885366 33.24965911 -31.56185093 33.24908093 -33.71484375 33.24609375 C-35.23222389 33.26294472 -35.23222389 33.26294472 -36.78025818 33.28013611 C-43.79971672 33.21065351 -43.79971672 33.21065351 -47.57104492 30.93310547 C-50.32591874 27.91311261 -52.65020659 24.82148688 -54.9375 21.4375 C-55.40027344 20.79876953 -55.86304687 20.16003906 -56.33984375 19.50195312 C-58.72876995 15.98274393 -59.56466712 14.28311267 -59.546875 9.90625 C-58.5625 6.75 -58.5625 6.75 -55.4375 4.5625 C-37.88288966 -2.78888917 -18.42632942 -4.60143533 0 0 Z " fill="#E11B39" transform="translate(149.5625,21.25)"/>
<path d="M0 0 C2.29394621 1.59783193 4.25455857 3.14148794 6.3125 5 C6.88790527 5.50692383 7.46331055 6.01384766 8.05615234 6.53613281 C9.71688481 8.01057564 11.35965633 9.50295676 13 11 C13.73863281 11.65484375 14.47726563 12.3096875 15.23828125 12.984375 C21.82055258 19.14418171 26.87522815 26.63187845 32 34 C33.02480469 35.44052734 33.02480469 35.44052734 34.0703125 36.91015625 C36.72061549 40.89793772 38.44570112 43.6872147 37.9375 48.5625 C37 52 37 52 36 53 C31.53211883 53.29153598 27.05844349 53.31412107 22.58227539 53.35009766 C21.07788565 53.36660274 19.57357257 53.39382105 18.06958008 53.43212891 C15.89623501 53.48719879 13.72473226 53.50881918 11.55078125 53.5234375 C9.59652222 53.5531665 9.59652222 53.5531665 7.6027832 53.58349609 C2.2851368 52.72226584 -0.14584485 50.2186884 -3.59570312 46.09057617 C-3.98693359 45.49736572 -4.37816406 44.90415527 -4.78125 44.29296875 C-5.22815186 43.62773193 -5.67505371 42.96249512 -6.13549805 42.27709961 C-6.58578369 41.58753174 -7.03606934 40.89796387 -7.5 40.1875 C-8.45267195 38.75404033 -9.40708133 37.32173373 -10.36328125 35.890625 C-10.81525879 35.21322266 -11.26723633 34.53582031 -11.73291016 33.83789062 C-13.66653381 31.03320491 -15.81736816 28.42038132 -18.07421875 25.87109375 C-19.65184987 22.68254816 -19.47248075 20.51655517 -19 17 C-17.35786014 13.94750471 -15.29392565 11.32002661 -13.125 8.625 C-12.56941406 7.90183594 -12.01382813 7.17867187 -11.44140625 6.43359375 C-5.81869607 -0.78786294 -5.81869607 -0.78786294 0 0 Z " fill="#E11A38" transform="translate(182,36)"/>
<path d="M0 0 C2.546875 2.58203125 2.546875 2.58203125 4.75 5.8125 C5.48734375 6.87082031 6.2246875 7.92914063 6.984375 9.01953125 C7.64953125 10.00308594 8.3146875 10.98664062 9 12 C9.87398437 12.96486328 9.87398437 12.96486328 10.765625 13.94921875 C12.71324928 17.18498694 12.53168659 19.2859557 12 23 C10.45707833 25.86437485 8.49503217 28.30115416 6.4375 30.8125 C5.33066101 32.21767176 4.22518815 33.6239207 3.12109375 35.03125 C2.58339355 35.70800781 2.04569336 36.38476562 1.49169922 37.08203125 C-1.0101922 40.29886578 -3.25418003 43.68405885 -5.5 47.08203125 C-7.23837529 49.30479757 -8.55558107 50.55653282 -11 52 C-14.39160156 52.34057617 -14.39160156 52.34057617 -18.390625 52.29296875 C-19.09523865 52.28872391 -19.79985229 52.28447906 -20.52581787 52.28010559 C-22.76760712 52.26336538 -25.00848431 52.22572404 -27.25 52.1875 C-28.77342448 52.17244704 -30.29686311 52.1587597 -31.8203125 52.14648438 C-35.54716941 52.11347791 -39.27349563 52.06172854 -43 52 C-45.29206901 47.91210604 -45.12781566 45.60848813 -44 41 C-42.72549858 38.41434115 -41.16154145 36.1014068 -39.5 33.75 C-38.82723022 32.77329346 -38.82723022 32.77329346 -38.14086914 31.77685547 C-31.60568739 22.41064357 -24.39686579 13.75765801 -16 6 C-15.23429687 5.29101562 -14.46859375 4.58203125 -13.6796875 3.8515625 C-12.91914062 3.19929688 -12.15859375 2.54703125 -11.375 1.875 C-10.36566406 1.00488281 -10.36566406 1.00488281 -9.3359375 0.1171875 C-5.80851318 -1.56984152 -3.70441835 -1.09654069 0 0 Z " fill="#E11A38" transform="translate(83,37)"/>
<path d="M0 0 C0.6998703 -0.00287018 1.3997406 -0.00574036 2.12081909 -0.00869751 C3.59504001 -0.01073336 5.06928823 -0.00523697 6.54345703 0.00732422 C8.80432047 0.02343488 11.06340951 0.00743649 13.32421875 -0.01171875 C14.75781645 -0.00973718 16.19141305 -0.00589528 17.625 0 C18.92969238 0.00338379 20.23438477 0.00676758 21.57861328 0.01025391 C22.60196777 0.13835449 23.62532227 0.26645508 24.6796875 0.3984375 C27.05964614 3.96837547 27.18123818 5.18541178 26.6796875 9.3984375 C25.53262704 12.07987754 24.02341275 14.46144928 22.4296875 16.8984375 C21.763927 17.93859009 21.763927 17.93859009 21.0847168 18.99975586 C16.25536417 26.3513176 10.6381376 32.94641429 4.6796875 39.3984375 C4.0196875 40.11773437 3.3596875 40.83703125 2.6796875 41.578125 C1.06580726 43.25925025 -0.58782697 44.84038987 -2.3203125 46.3984375 C-3.03832031 47.05972656 -3.75632813 47.72101563 -4.49609375 48.40234375 C-5.26308594 49.06105469 -6.03007812 49.71976562 -6.8203125 50.3984375 C-7.51125 50.9965625 -8.2021875 51.5946875 -8.9140625 52.2109375 C-12.48352956 53.97249267 -14.54968418 53.52543641 -18.3203125 52.3984375 C-20.8671875 49.81640625 -20.8671875 49.81640625 -23.0703125 46.5859375 C-24.17632812 44.99845703 -24.17632812 44.99845703 -25.3046875 43.37890625 C-25.96984375 42.39535156 -26.635 41.41179687 -27.3203125 40.3984375 C-27.90296875 39.75519531 -28.485625 39.11195313 -29.0859375 38.44921875 C-31.03356178 35.21345056 -30.85199909 33.1124818 -30.3203125 29.3984375 C-28.77739083 26.53406265 -26.81534467 24.09728334 -24.7578125 21.5859375 C-23.65097351 20.18076574 -22.54550065 18.7745168 -21.44140625 17.3671875 C-20.90370605 16.69042969 -20.36600586 16.01367188 -19.81201172 15.31640625 C-17.3101203 12.09957172 -15.06613247 8.71437865 -12.8203125 5.31640625 C-9.05974898 0.50797737 -6.0437223 0.01564766 0 0 Z " fill="#E11A38" transform="translate(193.3203125,234.6015625)"/>
<path d="M0 0 C4.47435658 -0.61214551 8.98169622 -0.5147731 13.49316406 -0.50097656 C15.7285446 -0.50000928 17.96043273 -0.54149667 20.1953125 -0.5859375 C21.62499287 -0.59114873 23.05468513 -0.59383262 24.484375 -0.59375 C26.42908691 -0.60438477 26.42908691 -0.60438477 28.41308594 -0.61523438 C33.69993532 0.29157616 36.1585073 2.79646352 39.59570312 6.90942383 C39.98693359 7.50263428 40.37816406 8.09584473 40.78125 8.70703125 C41.22815186 9.37226807 41.67505371 10.03750488 42.13549805 10.72290039 C42.81092651 11.7572522 42.81092651 11.7572522 43.5 12.8125 C44.45267195 14.24595967 45.40708133 15.67826627 46.36328125 17.109375 C46.81525879 17.78677734 47.26723633 18.46417969 47.73291016 19.16210938 C49.66653381 21.96679509 51.81736816 24.57961868 54.07421875 27.12890625 C55.64449732 30.30259163 55.45227555 32.50024872 55 36 C53.47481492 39.05875631 51.52257492 41.676083 49.4375 44.375 C48.92380859 45.09816406 48.41011719 45.82132812 47.88085938 46.56640625 C45.25965017 50.03747334 43.65752279 51.75756143 39.50390625 53.2890625 C34.95992887 52.91419703 32.68500517 51.01828367 29.5 48 C28.93176514 47.48743652 28.36353027 46.97487305 27.77807617 46.44677734 C26.16712325 44.98286225 24.58245224 43.49456782 23 42 C21.98873047 41.09121094 21.98873047 41.09121094 20.95703125 40.1640625 C13.26455958 32.96493224 7.03354424 23.90919159 1.375 15.0625 C0.72273438 14.04285156 0.07046875 13.02320313 -0.6015625 11.97265625 C-2.16506268 8.64912655 -2.43395644 6.62807766 -2 3 C-1.34 2.01 -0.68 1.02 0 0 Z " fill="#E11A38" transform="translate(40,235)"/>
<path d="M0 0 C0.99 0 1.98 0 3 0 C3.66 1.65 4.32 3.3 5 5 C6.93798263 2.22739701 6.93798263 2.22739701 8 0 C8.99 0 9.98 0 11 0 C11 3.96 11 7.92 11 12 C10.34 12 9.68 12 9 12 C8.67 10.35 8.34 8.7 8 7 C7.67 8.32 7.34 9.64 7 11 C6.01 10.67 5.02 10.34 4 10 C3.67 9.34 3.34 8.68 3 8 C2.67 9.32 2.34 10.64 2 12 C1.34 12 0.68 12 0 12 C0 8.04 0 4.08 0 0 Z " fill="#DD5C6C" transform="translate(234,285)"/>
<path d="M0 0 C0 3.96 0 7.92 0 12 C-1.98 10.35 -3.96 8.7 -6 7 C-2.86206897 0 -2.86206897 0 0 0 Z " fill="#FDF2F4" transform="translate(258,156)"/>
<path d="M0 0 C1.98 1.65 3.96 3.3 6 5 C4.46126823 8.71860179 3.52488612 9.35633541 0 12 C0 8.04 0 4.08 0 0 Z " fill="#FDF3F4" transform="translate(0,156)"/>
</svg>
